<svg xmlns="http://www.w3.org/2000/svg" width="200" height="280" viewBox="0 0 200 280">
  <defs>
    <linearGradient id="bg4" x1="0%" y1="0%" x2="100%" y2="100%">
      <stop offset="0%" style="stop-color:#4A148C;stop-opacity:1" />
      <stop offset="100%" style="stop-color:#7B1FA2;stop-opacity:1" />
    </linearGradient>
  </defs>
  <rect width="200" height="280" fill="url(#bg4)" rx="4"/>
  <rect width="8" height="280" fill="#00000033" rx="2"/>
  <!-- Stars background -->
  <circle cx="40" cy="30" r="2" fill="#ffffffaa"/>
  <circle cx="80" cy="20" r="1.5" fill="#ffffffaa"/>
  <circle cx="150" cy="35" r="2" fill="#ffffffaa"/>
  <circle cx="170" cy="15" r="1.5" fill="#ffffffaa"/>
  <circle cx="30" cy="60" r="1" fill="#ffffffaa"/>
  <circle cx="160" cy="55" r="1.5" fill="#ffffffaa"/>
  <!-- Heart / life symbol -->
  <path d="M 100 130 L 65 100 Q 55 85 70 75 Q 85 65 100 85 Q 115 65 130 75 Q 145 85 135 100 Z"
        fill="#E91E63" opacity="0.9"/>
  <!-- Inner glow -->
  <path d="M 100 120 L 76 100 Q 70 90 79 84 Q 88 78 100 93 Q 112 78 121 84 Q 130 90 124 100 Z"
        fill="#F48FB1" opacity="0.5"/>
  <!-- Divider -->
  <rect x="20" y="155" width="160" height="2" fill="#ffffff44" rx="1"/>
  <!-- Title -->
  <text x="100" y="178" font-family="Arial" font-size="13" font-weight="bold" fill="#fff" text-anchor="middle">Sống Đúng</text>
  <text x="100" y="196" font-family="Arial" font-size="13" font-weight="bold" fill="#CE93D8" text-anchor="middle">Nghĩa</text>
  <!-- Author -->
  <text x="100" y="222" font-family="Arial" font-size="9" fill="#ffffffbb" text-anchor="middle">Nguyễn An</text>
  <!-- Bottom -->
  <rect x="0" y="258" width="200" height="22" fill="#00000044" rx="0"/>
  <text x="100" y="273" font-family="Arial" font-size="8" fill="#ffffffaa" text-anchor="middle">NXB Cuộc Sống</text>
</svg>
